name Walk2.mot
datacolumns 19
datarows 27
range 2.13300000 2.15900000
endheader

                time	   L_ground_force_vx	   L_ground_force_vy	   L_ground_force_vz	   L_ground_force_px	   L_ground_force_py	   L_ground_force_pz	   R_ground_force_vx	   R_ground_force_vy	   R_ground_force_vz	   R_ground_force_px	   R_ground_force_py	   R_ground_force_pz	   L_ground_torque_x	   L_ground_torque_y	   L_ground_torque_z	   R_ground_torque_x	   R_ground_torque_y	   R_ground_torque_z	
          2.13300000	        -23.85430740	        732.66622807	        -53.98925919	          0.33863517	          0.00000000	          0.12785676	          0.00000000	          0.00000000	          0.00000000	          0.00000000	          0.00000000	          0.00000000	          0.00000000	          7.28888260	          0.00000000	          0.00000000	          0.00000000	          0.00000000	
          2.13400000	        -23.66214616	        731.66665990	        -53.90865234	          0.33889873	          0.00000000	          0.12778982	          0.00000000	          0.00000000	          0.00000000	          0.00000000	          0.00000000	          0.00000000	          0.00000000	          7.22675307	          0.00000000	          0.00000000	          0.00000000	          0.00000000	
          2.13500000	        -23.44965634	        730.66815315	        -53.75837415	          0.33914400	          0.00000000	          0.12774416	          0.00000000	          0.00000000	          0.00000000	          0.00000000	          0.00000000	          0.00000000	          0.00000000	          7.14921816	          0.00000000	          0.00000000	          0.00000000	          0.00000000	
          2.13600000	        -23.19986016	        729.73941027	        -53.54861664	          0.33942454	          0.00000000	          0.12776238	          0.00000000	          0.00000000	          0.00000000	          0.00000000	          0.00000000	          0.00000000	          0.00000000	          7.06805835	          0.00000000	          0.00000000	          0.00000000	          0.00000000	
          2.13700000	        -22.92563271	        728.92757224	        -53.31057238	          0.33978040	          0.00000000	          0.12784932	          0.00000000	          0.00000000	          0.00000000	          0.00000000	          0.00000000	          0.00000000	          0.00000000	          6.99139667	          0.00000000	          0.00000000	          0.00000000	          0.00000000	
          2.13800000	        -22.64909195	        728.23136112	        -53.07308968	          0.34021245	          0.00000000	          0.12797231	          0.00000000	          0.00000000	          0.00000000	          0.00000000	          0.00000000	          0.00000000	          0.00000000	          6.91980501	          0.00000000	          0.00000000	          0.00000000	          0.00000000	
          2.13900000	        -22.37854085	        727.61975154	        -52.84863668	          0.34069222	          0.00000000	          0.12808906	          0.00000000	          0.00000000	          0.00000000	          0.00000000	          0.00000000	          0.00000000	          0.00000000	          6.85209988	          0.00000000	          0.00000000	          0.00000000	          0.00000000	
          2.14000000	        -22.10668876	        727.03984626	        -52.64163478	          0.34117702	          0.00000000	          0.12816801	          0.00000000	          0.00000000	          0.00000000	          0.00000000	          0.00000000	          0.00000000	          0.00000000	          6.78629271	          0.00000000	          0.00000000	          0.00000000	          0.00000000	
          2.14100000	        -21.82335993	        726.41872985	        -52.45794593	          0.34163158	          0.00000000	          0.12819127	          0.00000000	          0.00000000	          0.00000000	          0.00000000	          0.00000000	          0.00000000	          0.00000000	          6.71716066	          0.00000000	          0.00000000	          0.00000000	          0.00000000	
          2.14200000	        -21.52731475	        725.70855324	        -52.29378741	          0.34205298	          0.00000000	          0.12815713	          0.00000000	          0.00000000	          0.00000000	          0.00000000	          0.00000000	          0.00000000	          0.00000000	          6.63866448	          0.00000000	          0.00000000	          0.00000000	          0.00000000	
          2.14300000	        -21.22833800	        724.92273425	        -52.12824128	          0.34246229	          0.00000000	          0.12808673	          0.00000000	          0.00000000	          0.00000000	          0.00000000	          0.00000000	          0.00000000	          0.00000000	          6.54941031	          0.00000000	          0.00000000	          0.00000000	          0.00000000	
          2.14400000	        -20.93871442	        724.10664730	        -51.94079623	          0.34287380	          0.00000000	          0.12801907	          0.00000000	          0.00000000	          0.00000000	          0.00000000	          0.00000000	          0.00000000	          0.00000000	          6.45566658	          0.00000000	          0.00000000	          0.00000000	          0.00000000	
          2.14500000	        -20.67139950	        723.31273637	        -51.72955538	          0.34328402	          0.00000000	          0.12799087	          0.00000000	          0.00000000	          0.00000000	          0.00000000	          0.00000000	          0.00000000	          0.00000000	          6.36584255	          0.00000000	          0.00000000	          0.00000000	          0.00000000	
          2.14600000	        -20.44516558	        722.60909986	        -51.50881241	          0.34368201	          0.00000000	          0.12801944	          0.00000000	          0.00000000	          0.00000000	          0.00000000	          0.00000000	          0.00000000	          0.00000000	          6.28096845	          0.00000000	          0.00000000	          0.00000000	          0.00000000	
          2.14700000	        -20.27158895	        722.05315153	        -51.29659920	          0.34405663	          0.00000000	          0.12810326	          0.00000000	          0.00000000	          0.00000000	          0.00000000	          0.00000000	          0.00000000	          0.00000000	          6.19604258	          0.00000000	          0.00000000	          0.00000000	          0.00000000	
          2.14800000	        -20.13314104	        721.64943123	        -51.10312268	          0.34439470	          0.00000000	          0.12823001	          0.00000000	          0.00000000	          0.00000000	          0.00000000	          0.00000000	          0.00000000	          0.00000000	          6.11032357	          0.00000000	          0.00000000	          0.00000000	          0.00000000	
          2.14900000	        -19.98792394	        721.34529272	        -50.92570016	          0.34468111	          0.00000000	          0.12837342	          0.00000000	          0.00000000	          0.00000000	          0.00000000	          0.00000000	          0.00000000	          0.00000000	          6.03081936	          0.00000000	          0.00000000	          0.00000000	          0.00000000	
          2.15000000	        -19.80463802	        721.04487339	        -50.75889478	          0.34490595	          0.00000000	          0.12849070	          0.00000000	          0.00000000	          0.00000000	          0.00000000	          0.00000000	          0.00000000	          0.00000000	          5.96553618	          0.00000000	          0.00000000	          0.00000000	          0.00000000	
          2.15100000	        -19.58912499	        720.65027019	        -50.60708984	          0.34508373	          0.00000000	          0.12854447	          0.00000000	          0.00000000	          0.00000000	          0.00000000	          0.00000000	          0.00000000	          0.00000000	          5.91704746	          0.00000000	          0.00000000	          0.00000000	          0.00000000	
          2.15200000	        -19.36955880	        720.11966911	        -50.47787103	          0.34526139	          0.00000000	          0.12852833	          0.00000000	          0.00000000	          0.00000000	          0.00000000	          0.00000000	          0.00000000	          0.00000000	          5.88176319	          0.00000000	          0.00000000	          0.00000000	          0.00000000	
          2.15300000	        -19.16615490	        719.48049427	        -50.37110935	          0.34549470	          0.00000000	          0.12846247	          0.00000000	          0.00000000	          0.00000000	          0.00000000	          0.00000000	          0.00000000	          0.00000000	          5.85071884	          0.00000000	          0.00000000	          0.00000000	          0.00000000	
          2.15400000	        -18.98514851	        718.80030520	        -50.28485123	          0.34581997	          0.00000000	          0.12837334	          0.00000000	          0.00000000	          0.00000000	          0.00000000	          0.00000000	          0.00000000	          0.00000000	          5.81297724	          0.00000000	          0.00000000	          0.00000000	          0.00000000	
          2.15500000	        -18.82212455	        718.14715873	        -50.21786577	          0.34623524	          0.00000000	          0.12828800	          0.00000000	          0.00000000	          0.00000000	          0.00000000	          0.00000000	          0.00000000	          0.00000000	          5.76321919	          0.00000000	          0.00000000	          0.00000000	          0.00000000	
          2.15600000	        -18.66187955	        717.56064669	        -50.15891443	          0.34670222	          0.00000000	          0.12823529	          0.00000000	          0.00000000	          0.00000000	          0.00000000	          0.00000000	          0.00000000	          0.00000000	          5.70486660	          0.00000000	          0.00000000	          0.00000000	          0.00000000	
          2.15700000	        -18.49297427	        717.04856237	        -50.08950099	          0.34717879	          0.00000000	          0.12823301	          0.00000000	          0.00000000	          0.00000000	          0.00000000	          0.00000000	          0.00000000	          0.00000000	          5.64363894	          0.00000000	          0.00000000	          0.00000000	          0.00000000	
          2.15800000	        -18.31826489	        716.59030416	        -49.99727065	          0.34764799	          0.00000000	          0.12827781	          0.00000000	          0.00000000	          0.00000000	          0.00000000	          0.00000000	          0.00000000	          0.00000000	          5.58096547	          0.00000000	          0.00000000	          0.00000000	          0.00000000	
          2.15900000	        -18.14102044	        716.13837125	        -49.87288782	          0.34811468	          0.00000000	          0.12835526	          0.00000000	          0.00000000	          0.00000000	          0.00000000	          0.00000000	          0.00000000	          0.00000000	          5.51566095	          0.00000000	          0.00000000	          0.00000000	          0.00000000	
